<svg xmlns="http://www.w3.org/2000/svg" viewBox="0 0 118 168"><defs><linearGradient x1="118" x2="0" gradientUnits="userSpaceOnUse" id="a"><stop stop-color="#5b9edb" offset="0"/><stop stop-color="#5b9edb" offset=".077"/><stop stop-color="#3348a4" offset=".889"/><stop stop-color="#3348a4" offset="1"/></linearGradient></defs><path d="M30.006 166.759l-7.868-19.738q-.867.134-2.734.134H2.4v19.604H0v-45.876h20.404q5.268 0 7.868 1.8 2.6 1.8 3.268 4.534.667 2.667.667 6.802 0 3.334-.467 5.734-.467 2.334-2.134 4.201-1.667 1.867-5.001 2.667l8.068 20.138zm-10.735-21.872q4.667 0 6.934-1.333 2.267-1.334 2.934-3.534.667-2.267.667-6.001 0-3.801-.6-6.002-.534-2.2-2.6-3.534-2.001-1.333-6.335-1.333H2.4v21.737zM55.192 166.759V148.02L37.79 120.883h2.8l15.604 24.605h.466l15.67-24.605h2.734l-17.47 27.138v18.738zM99.184 167.292q-8.936 0-12.536-1.534-3.601-1.533-4.668-6.068-1-4.534-1-15.87 0-11.335 1-15.87 1.067-4.534 4.668-6.067 3.6-1.534 12.536-1.534 8.935 0 12.535 1.534 3.601 1.533 4.601 6.068 1.067 4.534 1.067 15.87 0 11.335-1.067 15.87-1 4.534-4.6 6.067-3.601 1.534-12.536 1.534zm0-2.267q8.068 0 10.935-1 2.934-1.067 3.868-5.135 1-4.134 1-15.07 0-10.935-1-15.002-.934-4.135-3.868-5.135-2.867-1.067-10.935-1.067-8.069 0-11.003 1.067-2.867 1-3.867 5.135-.934 4.067-.934 15.003 0 10.935.934 15.07 1 4.067 3.867 5.134 2.934 1 11.003 1zM58.694 0C26.935 0 1.163 25.772 1.163 57.532c0 31.76 25.772 57.532 57.531 57.532 31.76 0 57.532-25.773 57.532-57.532C116.226 25.772 90.454 0 58.694 0zm0 2.439c30.442 0 55.094 24.651 55.094 55.093 0 30.442-24.652 55.093-55.094 55.093-30.441 0-55.093-24.651-55.093-55.093C3.6 27.09 28.253 2.439 58.694 2.439z" fill="url(#a)"/><path d="M38.818 37.792V77.271H78.57V37.792zm2.167 2.167h35.418v35.145H40.985z" fill="url(#a)"/></svg>