<svg xmlns="http://www.w3.org/2000/svg" xmlns:xlink="http://www.w3.org/1999/xlink" width="914.768" height="306.166">
  <defs>
    <linearGradient id="a" x1="153.082" x2="153.082" y2="308.173" gradientUnits="userSpaceOnUse">
      <stop offset="0" stop-color="#62c9f3"/>
      <stop offset="1" stop-color="#3d58b0"/>
    </linearGradient>
  </defs>
  <path fill="url(#a)" d="M98.549 98.904v108.358h109.068V98.904zm11.04 11.041h86.987v86.276H109.59zM153.082 0C68.61 0 0 68.612 0 153.084c0 84.472 68.61 153.082 153.082 153.082s153.084-68.612 153.084-153.084C306.166 68.61 237.554 0 153.082 0zm0 12.42c77.76 0 140.664 62.903 140.664 140.662 0 77.76-62.905 140.664-140.664 140.664-77.76 0-140.662-62.903-140.662-140.662 0-77.76 62.903-140.664 140.662-140.664zm674.329 238.855q-42.878 0-60.158-7.36t-22.4-29.12q-4.8-21.759-4.8-76.157 0-54.399 4.8-76.158 5.12-21.76 22.4-29.12Q784.533 26 827.41 26q42.88 0 60.159 7.36 17.28 7.36 22.08 29.12 5.12 21.76 5.12 76.158 0 54.398-5.12 76.158-4.8 21.76-22.08 29.12-17.28 7.359-60.159 7.359zm0-10.88q38.72 0 52.48-4.8 14.079-5.12 18.559-24.639 4.8-19.84 4.8-72.318 0-52.479-4.8-71.998Q893.97 46.8 879.89 42q-13.76-5.12-52.479-5.12T774.613 42q-13.76 4.8-18.56 24.64-4.48 19.52-4.48 71.998 0 52.479 4.48 72.318 4.8 19.52 18.56 24.64 14.08 4.8 52.798 4.8zm-211.109 8.32v-89.918L532.784 28.561h13.44l74.878 118.077h2.24L698.54 28.56h13.12l-83.84 130.237v89.918zm-120.867 0l-37.76-94.718q-4.16.64-13.12.64h-81.597v94.078h-11.52V28.561h97.918q25.28 0 37.759 8.64 12.48 8.64 15.68 21.759 3.2 12.8 3.2 32.639 0 16-2.24 27.52-2.24 11.199-10.24 20.159-8 8.96-24 12.8l38.72 96.637zm-51.519-104.957q22.4 0 33.28-6.4 10.879-6.4 14.079-16.96 3.2-10.88 3.2-28.799 0-18.24-2.88-28.8-2.56-10.559-12.48-16.959-9.6-6.4-30.4-6.4h-85.757v104.318z" />
  <path fill="#5b9edb" d="M423.711 268.646h11.84q3.36 0 5 1.08 1.68 1.08 2.16 2.88.52 1.76.52 4.6 0 2.72-.52 4.52-.48 1.8-2.16 2.92-1.68 1.08-5.04 1.08h-9.24v10.44h-2.56zm11.12 14.68q2.64 0 3.88-.64 1.24-.68 1.6-1.92.36-1.24.36-3.56 0-2.4-.36-3.6-.32-1.24-1.56-1.88-1.2-.68-3.88-.68h-8.6v12.28zm16.194-7.56h2.12l.16 4.08h.2q.68-2.48 2.4-3.44 1.72-.96 4.52-.96v2.6q-2.8 0-4.32.92-1.48.92-2.08 2.76-.56 1.8-.56 4.8v9.64h-2.44zm15.879-6.16v-3.16h2.72v3.16zm.12 26.56v-20.4h2.44v20.4zm17.024 0l-7.88-20.4h2.6l6.6 17.52h.28l6.6-17.52h2.52l-7.84 20.4zm22.685.32q-2.48 0-4-.48-1.48-.52-2.24-1.8-.76-1.28-.76-3.6 0-2.36.52-3.64.56-1.28 1.88-1.84 1.32-.56 3.76-.56 1.16 0 8.16.2v-1.48q0-2.68-.48-3.8-.48-1.12-1.76-1.44-1.28-.36-4.36-.36-1.32 0-3.28.16-1.96.12-3.04.32v-2.2q3-.52 7.24-.52 3.52 0 5.2.68 1.72.68 2.32 2.28.6 1.6.6 4.8v12.96h-2.12l-.12-3.04h-.2q-.8 2.04-2.76 2.72-1.92.64-4.56.64zm.68-2.2q2.28 0 3.68-.4 1.44-.4 2.08-1.64.48-.96.68-2 .2-1.04.2-2.44v-1.24h-7.52q-1.88 0-2.76.28-.88.24-1.24 1.04t-.36 2.52q0 1.64.4 2.48.44.8 1.52 1.12 1.08.28 3.32.28zm30.912 1.68q-.96.24-2.48.36-1.52.16-2.92.16-3.72 0-5.44-1.04-1.72-1.04-2.24-3.16-.52-2.16-.52-6.32t.6-6.36q.64-2.2 2.36-3.16 1.72-1 5.08-1 1.36 0 2.84.16 1.52.12 2.52.32v2.2q-2.48-.44-4.8-.44-2.76 0-4.04.68-1.24.64-1.68 2.32-.44 1.68-.44 5.24 0 3.72.44 5.4.44 1.68 1.72 2.32 1.28.6 4.12.6 2.4 0 4.88-.44zm15.099 8.44q-4.16 0-6.84-.32v-2.16q3.64.24 6.36.24 3.2 0 4.68-.76 1.48-.72 1.92-2.28.44-1.52.44-4.64v-1.16h-.2q-.56 1.4-2.12 2.24-1.52.84-4.68.84-3.04 0-4.6-.8-1.52-.8-2.08-2.44-.52-1.64-.52-4.64v-12.76h2.44v11.92q0 2.96.4 4.28.44 1.28 1.56 1.72 1.12.4 3.68.4 2.84 0 4.16-.92 1.32-.92 1.64-2.44.32-1.56.32-4.44v-10.52h2.44v17.84q0 4.28-.68 6.48-.64 2.24-2.56 3.28-1.88 1.04-5.76 1.04zm36.562-26.4h-4.2v-2.24h4.2v-3.72q0-2.52.76-3.72.8-1.2 2.36-1.52 1.6-.36 4.68-.36v2.08q-2.28 0-3.4.24-1.08.24-1.52.88-.44.64-.44 1.96v4.16h5.36v2.24h-5.36v18.16h-2.44zm22.16 18.48q-4.2 0-6-.84-1.8-.84-2.32-2.88-.48-2.08-.48-6.8t.48-6.76q.52-2.08 2.32-2.92 1.8-.84 6-.84t6 .84q1.8.84 2.28 2.92.52 2.04.52 6.76t-.52 6.8q-.48 2.04-2.28 2.88-1.8.84-6 .84zm0-2.24q3.24 0 4.48-.56 1.28-.6 1.56-2.12t.28-5.6q0-4.08-.28-5.56-.28-1.52-1.56-2.12-1.24-.6-4.48-.6t-4.52.6q-1.24.6-1.56 2.12-.28 1.48-.28 5.56t.28 5.6q.32 1.52 1.56 2.12 1.28.56 4.52.56zm17.025-18.48h2.12l.16 4.08h.2q.68-2.48 2.4-3.44 1.72-.96 4.52-.96v2.6q-2.8 0-4.32.92-1.48.92-2.08 2.76-.56 1.8-.56 4.8v9.64h-2.44zm33.278 20.4v-27.52h17.52v2.4h-14.96v10h13.08v2.4h-13.08v10.32h14.96v2.4zm30.291 0l-7.88-20.4h2.6l6.6 17.52h.28l6.6-17.52h2.52l-7.84 20.4zm32.966-9.32h-14.44q0 3.32.44 4.8.44 1.44 1.84 2.04 1.44.56 4.72.56 1.52 0 3.4-.12 1.88-.16 3.24-.36v2.16q-1.2.28-3.2.4-1.96.16-3.92.16-4 0-5.88-.92t-2.48-3.04q-.6-2.12-.6-6.52 0-4.4.52-6.48t2.36-3.08q1.88-1 6.04-1 3.72 0 5.4.96 1.68.96 2.12 3.04.44 2.08.44 6.52zm-8.08-9.16q-2.96 0-4.24.52-1.28.52-1.68 1.96-.4 1.44-.44 4.72h12.08v-.56q0-3-.52-4.36-.48-1.4-1.64-1.84-1.16-.44-3.56-.44zm16.321-1.92h2.12l.16 4.08h.2q.68-2.48 2.4-3.44 1.72-.96 4.52-.96v2.6q-2.8 0-4.32.92-1.48.92-2.08 2.76-.56 1.8-.56 4.8v9.64h-2.44zm23.639 28.64q-4.16 0-6.84-.32v-2.16q3.64.24 6.36.24 3.2 0 4.68-.76 1.48-.72 1.92-2.28.44-1.52.44-4.64v-1.16h-.2q-.56 1.4-2.12 2.24-1.52.84-4.68.84-3.04 0-4.6-.8-1.52-.8-2.08-2.44-.52-1.64-.52-4.64v-12.76h2.44v11.92q0 2.96.4 4.28.44 1.28 1.56 1.72 1.12.4 3.68.4 2.84 0 4.16-.92 1.32-.92 1.64-2.44.32-1.56.32-4.44v-10.52h2.44v17.84q0 4.28-.68 6.48-.64 2.24-2.56 3.28-1.88 1.04-5.76 1.04zm26.083-7.92q-4.2 0-6-.84-1.8-.84-2.32-2.88-.48-2.08-.48-6.8t.48-6.76q.52-2.08 2.32-2.92 1.8-.84 6-.84t6 .84q1.8.84 2.28 2.92.52 2.04.52 6.76t-.52 6.8q-.48 2.04-2.28 2.88-1.8.84-6 .84zm0-2.24q3.24 0 4.48-.56 1.28-.6 1.56-2.12t.28-5.6q0-4.08-.28-5.56-.28-1.52-1.56-2.12-1.24-.6-4.48-.6t-4.52.6q-1.24.6-1.56 2.12-.28 1.48-.28 5.56t.28 5.6q.32 1.52 1.56 2.12 1.28.56 4.52.56zm31.225-10.04q0-2.96-.4-4.24-.4-1.32-1.56-1.76-1.12-.44-3.64-.44-2.84 0-4.2.96-1.32.92-1.64 2.48-.32 1.56-.32 4.4v10.56h-2.44v-20.4h2.16l.12 3.08h.2q.64-1.6 2.2-2.48 1.6-.92 4.8-.92 3.04 0 4.56.8 1.56.8 2.08 2.48.52 1.64.52 4.64v12.8h-2.44zm27.602 2.64h-14.44q0 3.32.44 4.8.44 1.44 1.84 2.04 1.44.56 4.72.56 1.52 0 3.4-.12 1.88-.16 3.24-.36v2.16q-1.2.28-3.2.4-1.96.16-3.92.16-4 0-5.88-.92t-2.48-3.04q-.6-2.12-.6-6.52 0-4.4.52-6.48t2.36-3.08q1.88-1 6.04-1 3.72 0 5.4.96 1.68.96 2.12 3.04.44 2.08.44 6.52zm-8.08-9.16q-2.96 0-4.24.52-1.28.52-1.68 1.96-.4 1.44-.44 4.72h12.08v-.56q0-3-.52-4.36-.48-1.4-1.64-1.84-1.16-.44-3.56-.44z" />
</svg>
